<svg width="300" height="300" viewBox="0 0 300 300" fill="none" xmlns="http://www.w3.org/2000/svg">
<rect width="300" height="300" fill="white"/>
<line x1="25" y1="197.5" x2="275" y2="197.5" stroke="#2B2B2B" stroke-width="5"/>
<line x1="25" y1="97.5" x2="275" y2="97.5" stroke="#2B2B2B" stroke-width="5"/>
<path d="M29.5663 176V125.091H63.8703V133.965H40.3298V146.096H62.1054V154.97H40.3298V167.126H63.9697V176H29.5663ZM72.4276 125.091H85.7018L99.7217 159.295H100.318L114.338 125.091H127.612V176H117.172V142.864H116.749L103.575 175.751H96.4653L83.2906 142.74H82.868V176H72.4276V125.091ZM136.48 176V125.091H156.566C160.427 125.091 163.716 125.828 166.434 127.303C169.152 128.762 171.224 130.792 172.649 133.393C174.09 135.979 174.811 138.962 174.811 142.342C174.811 145.723 174.082 148.706 172.624 151.291C171.166 153.876 169.053 155.89 166.285 157.332C163.534 158.773 160.203 159.494 156.292 159.494H143.49V150.869H154.552C156.624 150.869 158.331 150.512 159.673 149.8C161.032 149.071 162.043 148.068 162.706 146.792C163.385 145.499 163.725 144.016 163.725 142.342C163.725 140.652 163.385 139.177 162.706 137.918C162.043 136.642 161.032 135.656 159.673 134.96C158.314 134.247 156.59 133.891 154.502 133.891H147.244V176H136.48ZM179.864 133.965V125.091H221.675V133.965H206.089V176H195.45V133.965H179.864ZM225.578 125.091H237.634L249.242 147.016H249.739L261.348 125.091H273.404L254.835 158.003V176H244.146V158.003L225.578 125.091Z" fill="#2B2B2B"/>
</svg>
