<svg width="28" height="28" viewBox="0 0 28 28" fill="none" xmlns="http://www.w3.org/2000/svg">
<g clip-path="url(#clip0_137_35)">
<path d="M14.7936 17.6647L19.6061 22.4772L17.6374 24.4731L12.6061 19.4147C11.3759 20.0981 9.954 20.4813 8.477 20.4813C3.801 20.4813 0 16.6803 0 12.0043C0 7.32834 3.801 3.52734 8.477 3.52734C13.153 3.52734 16.9811 7.32834 16.9811 12.0043C16.9811 14.1918 16.1332 16.1877 14.7936 17.6647ZM2.8175 12.0043C2.8175 15.1491 5.33313 17.6647 8.47788 17.6647C11.6226 17.6647 14.1382 15.1491 14.1382 12.0043C14.1382 8.85959 11.6226 6.34397 8.47788 6.34397C5.33313 6.34397 2.8175 8.85959 2.8175 12.0043Z" fill="white"/>
</g>
<defs>
<clipPath id="clip0_137_35">
<rect width="28" height="28" fill="white"/>
</clipPath>
</defs>
</svg>
